<svg enable-background="new 0 0 670 70" viewBox="0 0 670 70" xmlns="http://www.w3.org/2000/svg"><g fill="#00693e"><path d="m29.55 1.14h-29.04v1.25c2.59 1.53 3.74 3.35 3.74 10.63v43.32c0 7.28-1.15 9.1-3.74 10.64v1.25h27.22c25.3 0 38.33-14.95 38.33-35.36 0-18.41-12.65-31.73-36.51-31.73zm-2.59 59.8h-12.17v-52.52h13.03c17.44 0 27.02 8.82 27.02 27.02.01 15.82-8.72 25.5-27.88 25.5z"/><path d="m291.14 66.98c-2.97-1.25-4.22-3.55-3.26-10.92l4.41-33.35 21.85 44.66h4.02l22.14-44.75 4.12 33.83c.86 7.19-.1 9.3-2.87 10.54v1.25h18.21v-1.25c-2.49-1.34-3.55-3.35-4.5-10.16l-7.67-56.45h-4.89l-25.01 51.65-25.01-51.66h-4.89l-7.95 56.06c-.96 7-2.4 9.1-5.18 10.54v1.25h16.48zm-41.3 0c-2.87-1.63-4.22-3.55-4.22-11.12v-47.44h8.15c10.45 0 12.46 1.53 15.24 4.98l1.25-.38-2.01-12.75c-3.93.48-9.1.86-15.62.86h-24.63c-6.52 0-11.69-.38-15.62-.86l-2.01 12.75 1.25.38c2.78-3.45 4.79-4.98 15.24-4.98h8.15v47.44c0 7.57-1.34 9.49-4.22 11.12v1.25h19.07v-1.25z"/><path d="m165.41 66.98c-2.11-1.05-3.74-3.35-3.74-10.64v-48.2h8.72c10.64 0 16 4.12 16 13.03 0 8.15-5.08 13.22-14.76 13.22h-6.32v.96l2.97 6.04h2.87c3.16 0 4.12 1.05 8.82 7.38l11.98 16.1c1.92 2.59 3.26 3.35 5.75 3.35h11.79v-1.25c-2.49-.96-4.41-2.4-9.01-8.34l-8.24-10.54c-4.41-5.56-6.8-8.34-9.68-9.49 9.87-2.59 14.95-9.58 14.95-18.02 0-12.36-8.24-19.45-26.07-19.45h-24.14v1.25c2.11 1.05 3.74 3.35 3.74 10.64v43.32c0 7.28-1.63 9.58-3.74 10.64v1.25h18.11z"/><path d="m131.77 57.87-25.97-57.5h-3.93l-25.97 57.5c-2.59 5.65-3.93 7.76-6.8 9.1v1.25h17.25v-1.25c-3.45-1.34-4.6-3.45-1.53-10.45l3.55-8.15h27.6l3.55 8.15c3.07 7 2.01 9.1-1.05 10.45v1.25h19.65v-1.25c-2.51-1.33-3.76-3.44-6.35-9.1zm-40.34-16.38 10.73-24.53 10.73 24.53z"/><path d="m618.93 2.39v-1.25h-18.11v1.25c2.59 1.53 3.74 3.35 3.74 10.64v43.32c0 7.28-1.15 9.1-3.74 10.64v1.25h18.11v-1.25c-2.59-1.53-3.74-3.35-3.74-10.64v-18.7h38.43v18.69c0 7.28-1.15 9.1-3.74 10.64v1.25h18.12v-1.25c-2.59-1.53-3.74-3.35-3.74-10.64v-43.32c0-7.28 1.15-9.1 3.74-10.64v-1.24h-18.11v1.25c2.59 1.53 3.74 3.35 3.74 10.64v17.25h-38.43v-17.26c0-7.28 1.15-9.1 3.73-10.63"/><path d="m569.1 66.98c-2.88-1.63-4.22-3.55-4.22-11.12v-47.44h8.15c10.45 0 12.46 1.53 15.24 4.98l1.25-.38-2.02-12.74c-3.93.48-9.1.86-15.62.86h-24.63c-6.52 0-11.69-.38-15.62-.86l-2.01 12.75 1.25.38c2.78-3.45 4.79-4.98 15.24-4.98h8.15v47.44c0 7.57-1.34 9.49-4.22 11.12v1.25h19.07v-1.26z"/><path d="m502.6 2.39c2.78 1.63 4.22 3.55 4.22 11.12v28.65c0 12.27-6.61 19.07-18.21 19.07-12.08 0-18.59-6.61-18.59-18.4v-29.8c0-7.28 1.15-9.1 3.74-10.64v-1.25h-18.11v1.25c2.59 1.53 3.74 3.35 3.74 10.64v30.47c0 16.48 10.25 26.16 27.79 26.16 17.44 0 27.79-9.77 27.79-27.5v-28.66c0-7.57 1.44-9.49 4.22-11.12v-1.24h-16.59z"/><path d="m405.9-.39c-21.47 0-35.46 16.58-35.46 35.55 0 18.02 12.84 34.5 35.55 34.5 21.47 0 35.46-16.58 35.46-35.55.01-18.02-12.84-34.5-35.55-34.5zm.96 62.67c-14.18 0-25.11-12.36-25.11-29.23 0-16.1 9.3-26.07 23.29-26.07 14.18 0 25.11 12.36 25.11 29.23 0 16.11-9.3 26.07-23.29 26.07z"/></g></svg>